# xmcd
#
# Track frame offsets:
# 150
# 8317
# 17860
# 28207
# 33600
# 47882
# 58105
# 63872
# 74787
# 86397
#
# Disc length: 1281 seconds
#
#
# Revision: 0
# Processed by: cddbd v1.5.1PL0 Copyright (c) Steve Scherf et al.
# Submitted via: FreeRIP 2.90 
#
DISCID=8304ff0a
DTITLE=Various Artist - Country Christmas - Disc 3
DYEAR=2002
DGENRE=Country
TTITLE0=Jingle Bells - Jim Reeves
TTITLE1=The Reindeer Boogie - Hank Snow
TTITLE2=Jolly Old Saint Nick - Eddy Arnold
TTITLE3=Deck The Hall - Chet Atkins
TTITLE4=What Child Is This - Floyd Cramer
TTITLE5=Santa Claus Is Comin' To Town - Skeeter Davis
TTITLE6=We Wish You A Merry Christmas - Lorne Greene
TTITLE7=Nuttin' For Christmas Homer and Jethro
TTITLE8=Spirit Of Christmas - Liz Anderson
TTITLE9=O Come All Ye Faithful - Jimmy Elledge
EXTD=
EXTT0=
EXTT1=
EXTT2=
EXTT3=
EXTT4=
EXTT5=
EXTT6=
EXTT7=
EXTT8=
EXTT9=
PLAYORDER=
